#!OML:ASF X:\für Bonn\!DataBase\2005_08_12_Daniel\c3d\Daniel.ASF
:FULLY-SPECIFIED
:DEGREES
1345
root 1.29337 17.0647 -8.45766 -191.766 27.6745 524.478
lowerback 12.4357 1.69167 -11.158
upperback 0.983004 0.907333 -5.39876
thorax -6.00735 0.894954 0.340128
lowerneck -1.59109 -2.52703 -9.50719
upperneck 11.0934 -3.35628 7.31909
head 3.84545 -1.59839 3.68022
rclavicle 2.49226e-014 -3.18055e-014
rhumerus -36.6655 -19.366 -80.8197
rradius 13.8399
rwrist 40.0084
rhand -13.0195 17.4362
rfingers 7.12502
rthumb 13.0744 -12.134
lclavicle 2.49226e-014 -3.18055e-014
lhumerus -48.85 50.1359 44.0356
lradius 16.3681
lwrist -46.0964
lhand -2.90277 -5.40728
lfingers 7.12502
lthumb 22.8073 23.2643
rfemur -9.27959 -5.86707 8.21141
rtibia 73.5412
rfoot 5.60534 7.42537
rtoes 2.01844
lfemur -17.24 -7.3482 -30.9197
ltibia 42.7157
lfoot -19.8941 -4.02971
ltoes -13.3088
1346
root 1.36871 17.1078 -8.61601 -191.82 28.0454 524.723
lowerback 12.6058 1.45909 -10.9554
upperback 0.94194 0.581623 -5.32468
thorax -6.11821 0.729662 0.361991
lowerneck -1.50071 -2.31535 -9.35351
upperneck 11.2347 -3.05512 7.05325
head 3.84164 -1.45391 3.58709
rclavicle -5.54858e-014 1.59028e-014
rhumerus -36.9116 -19.7701 -80.5194
rradius 13.8756
rwrist 39.8006
rhand -13.3598 17.3077
rfingers 7.12502
rthumb 12.7464 -12.2833
lclavicle -5.54858e-014 1.59028e-014
lhumerus -48.1223 49.6859 44.8708
lradius 16.4097
lwrist -45.8989
lhand -2.91785 -5.5553
lfingers 7.12502
lthumb 22.7928 23.1181
rfemur -10.8175 -5.98884 8.73597
rtibia 73.8596
rfoot 4.44482 7.62504
rtoes 0.671855
lfemur -16.1391 -7.38428 -30.785
ltibia 42.311
lfoot -20.2234 -3.68252
ltoes -12.456
1347
root 1.44395 17.1474 -8.77152 -191.868 28.4061 524.95
lowerback 12.7023 1.2094 -10.8802
upperback 0.970162 0.238579 -5.19347
thorax -6.11271 0.553825 0.522996
lowerneck -1.57273 -2.10475 -9.22154
upperneck 11.3763 -2.741 6.73988
head 3.86528 -1.30592 3.48148
rclavicle 7.92157e-014 -1.13705e-013
rhumerus -36.9127 -19.2009 -80.7681
rradius 14.1015
rwrist 38.3281
rhand -13.7052 17.1348
rfingers 7.12502
rthumb 12.4133 -12.4767
lclavicle 7.92157e-014 -1.13705e-013
lhumerus -47.1494 49.1521 46.0503
lradius 16.5038
lwrist -45.3844
lhand -2.87399 -5.57221
lfingers 7.12502
lthumb 22.8349 23.096
rfemur -12.3282 -6.02377 9.31587
rtibia 73.9807
rfoot 3.24645 7.89288
rtoes -1.07787
lfemur -15.0702 -7.31206 -30.6587
ltibia 41.8898
lfoot -20.5328 -3.45545
ltoes -12.0016
1348
root 1.51978 17.1864 -8.92542 -191.879 28.7795 525.16
lowerback 12.8036 0.999446 -10.8114
upperback 0.941542 -0.0610743 -5.06353
thorax -6.17459 0.402534 0.676784
lowerneck -1.57236 -1.91918 -9.0857
upperneck 11.5459 -2.46217 6.42247
head 3.88958 -1.17511 3.37336
rclavicle -1.70706e-014 -1.04561e-013
rhumerus -37.0643 -18.2305 -81.2018
rradius 14.5212
rwrist 36.2806
rhand -14.0968 16.8333
rfingers 7.12502
rthumb 12.0358 -12.8006
lclavicle -1.70706e-014 -1.04561e-013
lhumerus -46.2859 48.56 47.2127
lradius 16.6767
lwrist -44.934
lhand -2.91505 -5.59922
lfingers 7.12502
lthumb 22.7955 23.0739
rfemur -13.9089 -5.99462 9.8915
rtibia 73.9487
rfoot 2.09435 8.17061
rtoes -2.37439
lfemur -14.0389 -7.2972 -30.5506
ltibia 41.4417
lfoot -20.7643 -3.16689
ltoes -11.6151
1349
root 1.59626 17.2214 -9.07693 -191.914 29.0985 525.296
lowerback 12.8639 0.796134 -10.7856
upperback 0.951742 -0.3423 -4.96775
thorax -6.17163 0.260428 0.816086
lowerneck -1.5244 -1.75715 -9.02115
upperneck 11.6398 -2.22669 6.21712
head 3.88927 -1.06483 3.30976
rclavicle -1.60519e-014 4.37326e-014
rhumerus -37.2343 -17.2086 -81.6963
rradius 15.0668
rwrist 33.9064
rhand -14.5666 16.6149
rfingers 7.12502
rthumb 11.5827 -13.0451
lclavicle -1.60519e-014 4.37326e-014
lhumerus -45.0321 47.6659 48.8178
lradius 16.8414
lwrist -44.0802
lhand -3.02488 -5.5087
lfingers 7.12502
lthumb 22.6901 23.1773
rfemur -15.4639 -5.88993 10.3799
rtibia 73.758
rfoot 0.942945 8.48644
rtoes -2.86161
lfemur -13.017 -7.18922 -30.5166
ltibia 40.9783
lfoot -20.9399 -2.92742
ltoes -11.1936
1350
root 1.67294 17.2576 -9.22683 -191.89 29.4053 525.399
lowerback 12.8269 0.593309 -10.8117
upperback 0.982845 -0.611629 -4.86632
thorax -6.09097 0.122268 0.989035
lowerneck -1.60337 -1.62581 -8.92557
upperneck 11.7614 -2.01982 5.94424
head 3.92078 -0.970245 3.21816
rclavicle -1.59525e-014 5.96354e-014
rhumerus -37.3966 -16.3263 -82.1173
rradius 15.6546
rwrist 31.6202
rhand -15.0992 16.4504
rfingers 7.12502
rthumb 11.0691 -13.2378
lclavicle -1.59525e-014 5.96354e-014
lhumerus -43.8023 46.9188 50.3505
lradius 16.9762
lwrist -43.3668
lhand -3.25987 -5.43907
lfingers 7.12502
lthumb 22.4645 23.2744
rfemur -17.0655 -5.7576 10.8429
rtibia 73.4123
rfoot -0.148993 8.76251
rtoes -2.91559
lfemur -12.0466 -7.1198 -30.4978
ltibia 40.4672
lfoot -21.0457 -2.72773
ltoes -10.9615
1351
root 1.75034 17.297 -9.37668 -191.84 29.7362 525.534
lowerback 12.7664 0.382257 -10.7942
upperback 1.00232 -0.884514 -4.77615
thorax -6.00896 -0.0190934 1.12558
lowerneck -1.54047 -1.47706 -8.84238
upperneck 11.803 -1.80514 5.74021
head 3.90494 -0.870197 3.15056
rclavicle -7.71036e-014 -1.31198e-014
rhumerus -37.609 -15.2605 -82.6369
rradius 16.3429
rwrist 29.1688
rhand -15.6601 16.2751
rfingers 7.12502
rthumb 10.528 -13.4413
lclavicle -7.71036e-014 -1.31198e-014
lhumerus -42.5667 46.085 51.8275
lradius 17.1048
lwrist -42.5939
lhand -3.46399 -5.34593
lfingers 7.12502
lthumb 22.2686 23.3911
rfemur -18.578 -5.64279 11.3237
rtibia 72.8391
rfoot -1.20888 9.00979
rtoes -3.16605
lfemur -11.0747 -7.0074 -30.4506
ltibia 39.9136
lfoot -21.0673 -2.52075
ltoes -11.151
1352
root 1.82864 17.34 -9.52415 -191.789 30.0149 525.681
lowerback 12.7211 0.17006 -10.796
upperback 1.04535 -1.16032 -4.65168
thorax -5.90764 -0.163002 1.309
lowerneck -1.47919 -1.33211 -8.86158
upperneck 11.8258 -1.5949 5.57818
head 3.88586 -0.77496 3.11234
rclavicle -2.90474e-014 -3.89618e-014
rhumerus -37.7577 -14.2827 -83.0273
rradius 16.9576
rwrist 26.9579
rhand -16.2763 16.2253
rfingers 7.12502
rthumb 9.93355 -13.5204
lclavicle -2.90474e-014 -3.89618e-014
lhumerus -41.2074 45.0291 53.5245
lradius 17.2878
lwrist -41.6339
lhand -3.66947 -5.23754
lfingers 7.12502
lthumb 22.0713 23.5229
rfemur -19.9522 -5.69499 11.7618
rtibia 72.0359
rfoot -2.16292 9.29089
rtoes -2.97625
lfemur -10.0875 -6.95006 -30.4084
ltibia 39.3499
lfoot -20.9739 -2.27625
ltoes -11.4606
1353
root 1.90694 17.3785 -9.67182 -191.71 30.2764 525.751
lowerback 12.6278 -0.0411957 -10.8001
upperback 1.04408 -1.4327 -4.59585
thorax -5.82799 -0.302311 1.41778
lowerneck -1.30405 -1.20077 -8.8276
upperneck 11.7866 -1.41471 5.42452
head 3.83108 -0.692301 3.06649
rclavicle -1.81391e-014 4.37326e-014
rhumerus -37.9762 -13.5906 -83.3098
rradius 17.5493
rwrist 25.0515
rhand -16.722 16.2989
rfingers 7.12502
rthumb 9.50359 -13.4668
lclavicle -1.81391e-014 4.37326e-014
lhumerus -39.9319 44.0794 54.9248
lradius 17.3196
lwrist -40.8976
lhand -3.91553 -5.27223
lfingers 7.12502
lthumb 21.8351 23.5159
rfemur -21.2673 -5.81278 12.1003
rtibia 71.0162
rfoot -3.01034 9.56841
rtoes -2.30174
lfemur -9.17591 -6.90414 -30.4405
ltibia 38.7919
lfoot -20.8699 -2.02638
ltoes -11.9008
1354
root 1.9856 17.4085 -9.81832 -191.61 30.5483 525.918
lowerback 12.5264 -0.249128 -10.7088
upperback 1.09211 -1.68087 -4.52292
thorax -5.69464 -0.436253 1.48732
lowerneck -1.25516 -1.0907 -8.72073
upperneck 11.8601 -1.24936 5.20588
head 3.83224 -0.615529 2.98826
rclavicle -7.7203e-014 -3.10104e-014
rhumerus -38.0755 -12.5591 -83.7806
rradius 18.0841
rwrist 22.9729
rhand -17.33 16.4017
rfingers 7.12502
rthumb 8.91693 -13.3899
lclavicle -7.7203e-014 -3.10104e-014
lhumerus -38.4889 42.9782 56.4393
lradius 17.3822
lwrist -40.1065
lhand -4.20658 -5.26118
lfingers 7.12502
lthumb 21.5556 23.5592
rfemur -22.4235 -5.92085 12.5378
rtibia 69.7766
rfoot -3.86543 9.8371
rtoes -1.35384
lfemur -8.25066 -6.85429 -30.3783
ltibia 38.2638
lfoot -20.7817 -1.8146
ltoes -12.2822
1355
root 2.06532 17.4367 -9.96475 -191.521 30.8193 526.001
lowerback 12.3804 -0.432841 -10.6577
upperback 1.14431 -1.89366 -4.48611
thorax -5.53534 -0.551926 1.53252
lowerneck -1.21462 -1.0041 -8.73314
upperneck 11.8922 -1.12673 5.13543
head 3.82663 -0.558849 2.97351
rclavicle -3.26007e-014 -5.96354e-014
rhumerus -38.1538 -12.0559 -83.9581
rradius 18.5022
rwrist 21.5395
rhand -17.7285 16.573
rfingers 7.12502
rthumb 8.5324 -13.2346
lclavicle -3.26007e-014 -5.96354e-014
lhumerus -36.9626 41.8926 57.8987
lradius 17.3616
lwrist -39.3641
lhand -4.50728 -5.3656
lfingers 7.12502
lthumb 21.2668 23.4877
rfemur -23.5441 -5.97984 12.8978
rtibia 68.373
rfoot -4.68404 9.97943
rtoes -0.803624
lfemur -7.36944 -6.71245 -30.3763
ltibia 37.7262
lfoot -20.7003 -1.64051
ltoes -12.664
